<svg style="position: absolute; width: 0; height: 0; overflow: hidden;" version="1.1" xmlns="http://www.w3.org/2000/svg" xmlns:xlink="http://www.w3.org/1999/xlink">
<defs>
<symbol id="icon-Git" viewBox="0 0 32 32">
<title>Git</title>
<path fill="#f03c2e" style="fill: var(--color1, #f03c2e)" d="M31.396 17.425l-13.971 13.971c-0.804 0.805-2.109 0.805-2.915 0l-2.901-2.902 3.68-3.68c0.855 0.289 1.836 0.095 2.518-0.587 0.686-0.686 0.878-1.675 0.582-2.534l3.547-3.547c0.858 0.296 1.848 0.105 2.534-0.582 0.958-0.957 0.958-2.509 0-3.468s-2.51-0.958-3.469 0c-0.72 0.721-0.898 1.779-0.533 2.667l-3.308 3.308v-8.705c0.233-0.116 0.454-0.27 0.648-0.464 0.958-0.958 0.958-2.509 0-3.469-0.958-0.957-2.511-0.957-3.468 0-0.958 0.959-0.958 2.511 0 3.469 0.237 0.236 0.511 0.415 0.803 0.535v8.786c-0.292 0.12-0.566 0.297-0.803 0.535-0.725 0.725-0.9 1.79-0.528 2.681l-3.628 3.629-9.58-9.58c-0.805-0.805-0.805-2.111 0-2.915l13.972-13.971c0.804-0.805 2.109-0.805 2.915 0l13.906 13.906c0.805 0.805 0.805 2.111 0 2.915z"></path>
</symbol>
<symbol id="icon-photoshop-cc" viewBox="0 0 33 32">
<title>photoshop-cc</title>
<path fill="#000" style="fill: var(--color2, #000)" d="M1.367 1.37h30.079v29.259h-30.079v-29.259z"></path>
<path fill="#31c5f0" style="fill: var(--color3, #31c5f0)" d="M1.367 1.37h30.079v29.259h-30.079v-29.259zM0 31.997h32.814v-31.994h-32.814v31.994zM22.122 13.129c-1.080 0-1.449 0.547-1.449 0.998 0 0.492 0.246 0.834 1.695 1.586 2.147 1.039 2.817 2.037 2.817 3.5 0 2.188-1.668 3.363-3.924 3.363-1.189 0-2.215-0.246-2.803-0.588-0.096-0.041-0.109-0.109-0.109-0.219v-2.010c0-0.137 0.068-0.178 0.164-0.109 0.861 0.561 1.846 0.807 2.748 0.807 1.080 0 1.531-0.451 1.531-1.066 0-0.492-0.314-0.93-1.695-1.641-1.942-0.93-2.748-1.873-2.748-3.445 0-1.764 1.381-3.227 3.774-3.227 1.176 0 1.996 0.178 2.447 0.383 0.109 0.068 0.137 0.178 0.137 0.273v1.873c0 0.109-0.068 0.178-0.205 0.137-0.602-0.383-1.49-0.615-2.379-0.615zM10.364 14.756c0.314 0.027 0.561 0.027 1.107 0.027 1.6 0 3.104-0.561 3.104-2.734 0-1.736-1.080-2.611-2.899-2.611-0.547 0-1.066 0.027-1.313 0.041v5.278zM7.93 7.496c0-0.096 0.191-0.164 0.301-0.164 0.875-0.041 2.174-0.068 3.527-0.068 3.787 0 5.264 2.078 5.264 4.731 0 3.473-2.516 4.963-5.606 4.963-0.52 0-0.697-0.027-1.066-0.027v5.25c0 0.109-0.041 0.164-0.164 0.164h-2.092c-0.109 0-0.164-0.041-0.164-0.164v-14.684z"></path>
</symbol>
<symbol id="icon-GitHub" viewBox="0 0 32 32">
<title>GitHub</title>
<path d="M16 0c-8.84 0-16 7.164-16 16 0 7.070 4.584 13.066 10.94 15.18 0.8 0.15 1.094-0.344 1.094-0.77 0-0.38-0.014-1.386-0.020-2.72-4.452 0.966-5.39-2.146-5.39-2.146-0.728-1.848-1.78-2.34-1.78-2.34-1.45-0.992 0.112-0.972 0.112-0.972 1.606 0.112 2.45 1.648 2.45 1.648 1.428 2.446 3.746 1.74 4.66 1.33 0.144-1.034 0.556-1.74 1.014-2.14-3.554-0.4-7.288-1.776-7.288-7.906 0-1.746 0.62-3.174 1.646-4.294-0.18-0.404-0.72-2.030 0.14-4.234 0 0 1.34-0.43 4.4 1.64 1.28-0.356 2.64-0.532 4-0.54 1.36 0.008 2.72 0.184 4 0.54 3.040-2.070 4.38-1.64 4.38-1.64 0.86 2.204 0.32 3.83 0.16 4.234 1.020 1.12 1.64 2.548 1.64 4.294 0 6.146-3.74 7.5-7.3 7.894 0.56 0.48 1.080 1.46 1.080 2.96 0 2.14-0.020 3.86-0.020 4.38 0 0.42 0.28 0.92 1.1 0.76 6.402-2.098 10.982-8.098 10.982-15.158 0-8.836-7.164-16-16-16z"></path>
</symbol>
<symbol id="icon-Gmail" viewBox="0 0 32 32">
<title>Gmail</title>
<path d="M32 6v20c0 1.134-0.866 2-2 2h-2v-18.15l-12 8.616-12-8.616v18.15h-2c-1.134 0-2-0.866-2-2v-20c0-0.566 0.216-1.066 0.574-1.424 0.36-0.362 0.862-0.576 1.426-0.576h0.666l13.334 9.666 13.334-9.666h0.666c0.566 0 1.066 0.216 1.426 0.576 0.358 0.358 0.574 0.858 0.574 1.424z"></path>
</symbol>
<symbol id="icon-LinkedIn" viewBox="0 0 32 32">
<title>LinkedIn</title>
<path fill="#0077b5" style="fill: var(--color4, #0077b5)" d="M27.264 27.27h-4.74v-7.426c0-1.772-0.036-4.050-2.468-4.050-2.47 0-2.848 1.928-2.848 3.92v7.556h-4.74v-15.27h4.552v2.080h0.060c0.636-1.2 2.184-2.466 4.494-2.466 4.8 0 5.69 3.16 5.69 7.274v8.376zM7.116 9.91c-1.524 0-2.752-1.234-2.752-2.754 0-1.516 1.228-2.75 2.752-2.75 1.52 0 2.752 1.234 2.752 2.75 0 1.52-1.234 2.754-2.752 2.754zM9.492 27.27h-4.752v-15.27h4.752v15.27zM29.632 0h-27.272c-1.304 0-2.36 1.032-2.36 2.306v27.388c0 1.274 1.056 2.306 2.36 2.306h27.27c1.304 0 2.37-1.032 2.37-2.306v-27.388c0-1.274-1.066-2.306-2.37-2.306z"></path>
</symbol>
<symbol id="icon-Bootstrap" viewBox="0 0 32 32">
<title>Bootstrap</title>
<path fill="#563d7c" style="fill: var(--color5, #563d7c)" d="M0 27.874c0 2.279 1.847 4.126 4.126 4.126h23.748c2.279 0 4.126-1.847 4.126-4.126v-23.748c0-2.279-1.847-4.126-4.126-4.126h-23.748c-2.279 0-4.126 1.847-4.126 4.126v23.748z"></path>
<path fill="#fff" style="fill: var(--color6, #fff)" d="M13.27 14.155v-4.532h3.989c0.38 0 0.746 0.032 1.099 0.095s0.665 0.176 0.936 0.339c0.271 0.163 0.488 0.389 0.651 0.678s0.244 0.66 0.244 1.113c0 0.814-0.244 1.402-0.733 1.764s-1.113 0.543-1.872 0.543h-4.314zM9.009 6.313v19.375h9.389c0.868 0 1.714-0.108 2.537-0.326s1.556-0.552 2.198-1.004c0.642-0.452 1.153-1.036 1.533-1.75s0.57-1.56 0.57-2.537c0-1.212-0.294-2.248-0.882-3.107s-1.479-1.461-2.673-1.805c0.868-0.416 1.524-0.95 1.968-1.601s0.665-1.465 0.665-2.442c0-0.905-0.149-1.664-0.448-2.279s-0.719-1.108-1.262-1.479c-0.543-0.371-1.194-0.638-1.954-0.8s-1.601-0.244-2.524-0.244h-9.118zM13.27 22.377v-5.319h4.64c0.923 0 1.664 0.212 2.225 0.638s0.841 1.135 0.841 2.13c0 0.507-0.086 0.923-0.258 1.248s-0.402 0.584-0.692 0.773c-0.289 0.19-0.624 0.326-1.004 0.407s-0.778 0.122-1.194 0.122h-4.559z"></path>
</symbol>
<symbol id="icon-Javascript" viewBox="0 0 32 32">
<title>Javascript</title>
<path fill="#f7df1e" style="fill: var(--color7, #f7df1e)" d="M0 0h32v32h-32v-32zM29.38 24.368c-0.234-1.46-1.186-2.686-4.006-3.83-0.98-0.46-2.070-0.78-2.396-1.52-0.12-0.44-0.14-0.68-0.060-0.94 0.2-0.86 1.22-1.12 2.020-0.88 0.52 0.16 1 0.56 1.3 1.2 1.38-0.9 1.38-0.9 2.34-1.5-0.36-0.56-0.54-0.8-0.78-1.040-0.84-0.94-1.96-1.42-3.78-1.38l-0.94 0.12c-0.9 0.22-1.76 0.7-2.28 1.34-1.52 1.72-1.080 4.72 0.76 5.96 1.82 1.36 4.48 1.66 4.82 2.94 0.32 1.56-1.16 2.060-2.62 1.88-1.080-0.24-1.68-0.78-2.34-1.78l-2.44 1.4c0.28 0.64 0.6 0.92 1.080 1.48 2.32 2.34 8.12 2.22 9.16-1.34 0.040-0.12 0.32-0.94 0.1-2.2zM17.4 14.708h-2.996c0 2.584-0.012 5.152-0.012 7.74 0 1.644 0.084 3.152-0.184 3.614-0.44 0.92-1.572 0.8-2.088 0.64-0.528-0.26-0.796-0.62-1.106-1.14-0.084-0.14-0.148-0.26-0.17-0.26l-2.434 1.5c0.406 0.84 1 1.56 1.766 2.020 1.14 0.68 2.672 0.9 4.276 0.54 1.044-0.3 1.944-0.92 2.414-1.88 0.68-1.24 0.536-2.76 0.53-4.46 0.016-2.74 0-5.48 0-8.24z"></path>
</symbol>
<symbol id="icon-Sass" viewBox="0 0 32 32">
<title>Sass</title>
<path fill="#c69" style="fill: var(--color8, #c69)" d="M16 0c8.836 0 16 7.164 16 16s-7.164 16-16 16-16-7.164-16-16 7.164-16 16-16zM12.82 21.33c0.234 0.86 0.208 1.664-0.032 2.39l-0.088 0.24c-0.032 0.080-0.068 0.16-0.104 0.234-0.186 0.386-0.434 0.746-0.74 1.080-0.93 1.012-2.228 1.396-2.786 1.072-0.6-0.348-0.3-1.78 0.78-2.92 1.16-1.224 2.826-2.012 2.826-2.012v-0.004l0.144-0.080zM26.036 6.85c-0.724-2.844-5.436-3.78-9.896-2.194-2.654 0.944-5.526 2.424-7.592 4.356-2.456 2.296-2.848 4.296-2.688 5.132 0.57 2.948 4.61 4.876 6.272 6.306v0.008c-0.49 0.24-4.074 2.040-4.914 3.9-0.9 1.96 0.14 3.36 0.82 3.54 2.1 0.58 4.26-0.48 5.42-2.2 1.12-1.68 1.020-3.84 0.54-4.9 0.66-0.18 1.44-0.26 2.44-0.14 2.8 0.32 3.36 2.080 3.24 2.8s-0.7 1.14-0.9 1.26c-0.2 0.12-0.26 0.16-0.24 0.24 0.020 0.12 0.12 0.12 0.28 0.1 0.22-0.040 1.46-0.6 1.52-1.96 0.060-1.72-1.58-3.64-4.5-3.6-1.2 0.020-1.96 0.12-2.5 0.34-0.040-0.060-0.080-0.1-0.14-0.14-1.8-1.94-5.14-3.3-5-5.88 0.040-0.94 0.38-3.42 6.4-6.42 4.94-2.46 8.88-1.78 9.56-0.28 0.98 2.14-2.1 6.12-7.24 6.7-1.96 0.22-2.98-0.54-3.24-0.82-0.28-0.3-0.32-0.32-0.42-0.26-0.16 0.080-0.060 0.34 0 0.5 0.16 0.4 0.78 1.1 1.86 1.46 0.94 0.3 3.24 0.48 6-0.6 3.1-1.2 5.52-4.54 4.82-7.34z"></path>
</symbol>
<symbol id="icon-Css3" viewBox="0 0 32 32">
<title>Css3</title>
<path fill="#1572b6" style="fill: var(--color9, #1572b6)" d="M2 0h28l-2.546 28.75-11.486 3.25-11.42-3.25-2.548-28.75zM24.786 5.884l-17.57-0.004 0.284 3.496 13.5 0.002-0.34 3.622h-8.854l0.318 3.432h8.244l-0.488 4.696-3.88 1.072-3.94-1.078-0.25-2.814h-3.48l0.388 5.14 7.282 2.27 7.164-2.040 1.622-17.794z"></path>
</symbol>
<symbol id="icon-Html5" viewBox="0 0 28 32">
<title>Html5</title>
<path fill="#e34f26" style="fill: var(--color10, #e34f26)" d="M0 0h28l-2.546 28.75-11.486 3.25-11.42-3.25-2.548-28.75zM9.374 13l-0.31-3.624 13.412 0.004 0.308-3.496-17.568-0.004 0.93 10.68h12.168l-0.434 4.568-3.88 1.072-3.94-1.080-0.25-2.812h-3.48l0.44 5.56 7.23 1.932 7.172-1.924 0.992-10.876h-12.79z"></path>
</symbol>
<symbol id="icon-up" viewBox="0 0 20 20">
<title>up</title>
<path d="M10 0.4c-5.303 0-9.601 4.298-9.601 9.6 0 5.303 4.298 9.601 9.601 9.601 5.301 0 9.6-4.298 9.6-9.601s-4.299-9.6-9.6-9.6zM9.999 17.6c-4.197 0-7.6-3.402-7.6-7.6s3.402-7.6 7.6-7.6 7.601 3.403 7.601 7.6-3.404 7.6-7.601 7.6zM10 5.5l4.5 4.5h-2.5v4h-4v-4h-2.5l4.5-4.5z"></path>
</symbol>
<symbol id="icon-previous" viewBox="0 0 20 20">
<title>previous</title>
<path d="M12.452 4.516c0.446 0.436 0.481 1.043 0 1.576l-3.747 3.908 3.747 3.908c0.481 0.533 0.446 1.141 0 1.574-0.445 0.436-1.197 0.408-1.615 0-0.418-0.406-4.502-4.695-4.502-4.695-0.223-0.217-0.335-0.502-0.335-0.787s0.112-0.57 0.335-0.789c0 0 4.084-4.287 4.502-4.695s1.17-0.436 1.615 0z"></path>
</symbol>
<symbol id="icon-next" viewBox="0 0 20 20">
<title>next</title>
<path d="M9.163 4.516c0.418 0.408 4.502 4.695 4.502 4.695 0.223 0.219 0.335 0.504 0.335 0.789s-0.112 0.57-0.335 0.787c0 0-4.084 4.289-4.502 4.695-0.418 0.408-1.17 0.436-1.615 0-0.446-0.434-0.481-1.041 0-1.574l3.747-3.908-3.747-3.908c-0.481-0.533-0.446-1.141 0-1.576s1.197-0.409 1.615 0z"></path>
</symbol>
<symbol id="icon-phone" viewBox="0 0 20 20">
<title>phone</title>
<path d="M17.256 12.253c-0.096-0.667-0.611-1.187-1.274-1.342-2.577-0.604-3.223-2.088-3.332-3.734-0.457-0.085-1.27-0.177-2.65-0.177s-2.193 0.092-2.65 0.177c-0.109 1.646-0.755 3.13-3.332 3.734-0.663 0.156-1.178 0.675-1.274 1.342l-0.497 3.442c-0.175 1.212 0.715 2.305 1.953 2.305h11.6c1.237 0 2.128-1.093 1.953-2.305l-0.497-3.442zM10 15.492c-1.395 0-2.526-1.12-2.526-2.5s1.131-2.5 2.526-2.5 2.526 1.12 2.526 2.5-1.132 2.5-2.526 2.5zM19.95 6c-0.024-1.5-3.842-3.999-9.95-4-6.109 0.001-9.927 2.5-9.95 4s0.021 3.452 2.535 3.127c2.941-0.381 2.76-1.408 2.76-2.876 0-1.024 2.392-1.271 4.655-1.271s4.654 0.247 4.655 1.271c0 1.468-0.181 2.495 2.76 2.876 2.513 0.325 2.558-1.627 2.535-3.127z"></path>
</symbol>
<symbol id="icon-down" viewBox="0 0 32 32">
<title>down</title>
<path d="M32 16c0-8.837-7.163-16-16-16s-16 7.163-16 16 7.163 16 16 16 16-7.163 16-16zM3 16c0-7.18 5.82-13 13-13s13 5.82 13 13-5.82 13-13 13-13-5.82-13-13z"></path>
<path d="M9.914 11.086l-2.829 2.829 8.914 8.914 8.914-8.914-2.828-2.828-6.086 6.086z"></path>
</symbol>
</defs>
</svg>
